<svg xmlns="http://www.w3.org/2000/svg">
    <symbol viewBox="0 0 24 24" fill="none" id="favourite">
        <g>
            <path d="M19.57,5.44a4.91,4.91,0,0,1,0,6.93L12,20,4.43,12.37A4.91,4.91,0,0,1,7.87,4a4.9,4.9,0,0,1,3.44,1.44,4.46,4.46,0,0,1,.69.88,4.46,4.46,0,0,1,.69-.88,4.83,4.83,0,0,1,6.88,0Z" style="fill: none; stroke-linecap: round; stroke-linejoin: round; stroke-width: 2;"></path>
        </g>
    </symbol>

    <symbol id="account" viewBox="0 0 48 48" fill="#fff">
        <g>
            <path d="M24,21A10,10,0,1,1,34,11,10,10,0,0,1,24,21ZM24,5a6,6,0,1,0,6,6A6,6,0,0,0,24,5Z"/><path d="M42,47H6a2,2,0,0,1-2-2V39A16,16,0,0,1,20,23h8A16,16,0,0,1,44,39v6A2,2,0,0,1,42,47ZM8,43H40V39A12,12,0,0,0,28,27H20A12,12,0,0,0,8,39Z"/>        
        </g>
    </symbol>

    <symbol id="shopping-cart" viewBox="0 0 24 24" fill="none">
        <g>
            <path d="M6.29977 5H21L19 12H7.37671M20 16H8L6 3H3M9 20C9 20.5523 8.55228 21 8 21C7.44772 21 7 20.5523 7 20C7 19.4477 7.44772 19 8 19C8.55228 19 9 19.4477 9 20ZM20 20C20 20.5523 19.5523 21 19 21C18.4477 21 18 20.5523 18 20C18 19.4477 18.4477 19 19 19C19.5523 19 20 19.4477 20 20Z" 
            stroke-width="2" stroke-linecap="round" stroke-linejoin="round"/>
        </g>
    </symbol>

    <symbol id="search" viewBox="0 0 24 24" fill="none">
        <g>
            <g id="SVGRepo_bgCarrier" stroke-width="0"/>
            <g id="SVGRepo_tracerCarrier" stroke-linecap="round" stroke-linejoin="round"/>
            <g id="SVGRepo_iconCarrier"> <path d="M16.6725 16.6412L21 21M19 11C19 15.4183 15.4183 19 11 19C6.58172 19 3 15.4183 3 11C3 6.58172 6.58172 3 11 3C15.4183 3 19 6.58172 19 11Z" 
            stroke-width="2" stroke-linecap="round" stroke-linejoin="round"/> </g>
        </g>
    </symbol>

    <symbol id="arrow-left" viewBox="0 0 24 24" fill="none">
        <g>
            <path d="M13.5 8.25L9.75 12L13.5 15.75" stroke-width="1.5" stroke-linecap="round" stroke-linejoin="round"/>
        </g>
    </symbol>

    <symbol id="arrow-right" viewBox="0 0 24 24" fill="none">
        <g>
            <g id="SVGRepo_bgCarrier" stroke-width="0"/>

            <g id="SVGRepo_tracerCarrier" stroke-linecap="round" stroke-linejoin="round"/>

            <g id="SVGRepo_iconCarrier"> <path d="M10.5 15.75L14.25 12L10.5 8.25" stroke-width="1.5" stroke-linecap="round" stroke-linejoin="round"/> </g>
        </g>
    </symbol>



</svg>