<svg xmlns="http://www.w3.org/2000/svg">
    <symbol viewBox="0 0 24 24" fill="none" id="favourite">
        <g>
            <path d="M19.57,5.44a4.91,4.91,0,0,1,0,6.93L12,20,4.43,12.37A4.91,4.91,0,0,1,7.87,4a4.9,4.9,0,0,1,3.44,1.44,4.46,4.46,0,0,1,.69.88,4.46,4.46,0,0,1,.69-.88,4.83,4.83,0,0,1,6.88,0Z" style="fill: none; stroke-linecap: round; stroke-linejoin: round; stroke-width: 2;"></path>
        </g>
    </symbol>

    <symbol id="account" viewBox="0 0 48 48">
        <path d="M31.278,25.525C34.144,23.332,36,19.887,36,16c0-6.627-5.373-12-12-12c-6.627,0-12,5.373-12,12
        c0,3.887,1.856,7.332,4.722,9.525C9.84,28.531,5,35.665,5,44h38C43,35.665,38.16,28.531,31.278,25.525z M16,16c0-4.411,3.589-8,8-8
        s8,3.589,8,8c0,4.411-3.589,8-8,8S16,20.411,16,16z M24,28c6.977,0,12.856,5.107,14.525,12H9.475C11.144,33.107,17.023,28,24,28z"/>
    </symbol>

    <symbol id="shopping-cart" viewBox="0 0 24 24" fill="none">
        <g>
            <path d="M6.29977 5H21L19 12H7.37671M20 16H8L6 3H3M9 20C9 20.5523 8.55228 21 8 21C7.44772 21 7 20.5523 7 20C7 19.4477 7.44772 19 8 19C8.55228 19 9 19.4477 9 20ZM20 20C20 20.5523 19.5523 21 19 21C18.4477 21 18 20.5523 18 20C18 19.4477 18.4477 19 19 19C19.5523 19 20 19.4477 20 20Z" 
            stroke-width="2" stroke-linecap="round" stroke-linejoin="round"/>
        </g>
    </symbol>

    <symbol id="search" viewBox="0 0 24 24" fill="none">
        <g>
            <g id="SVGRepo_bgCarrier" stroke-width="0"/>
            <g id="SVGRepo_tracerCarrier" stroke-linecap="round" stroke-linejoin="round"/>
            <g id="SVGRepo_iconCarrier"> <path d="M16.6725 16.6412L21 21M19 11C19 15.4183 15.4183 19 11 19C6.58172 19 3 15.4183 3 11C3 6.58172 6.58172 3 11 3C15.4183 3 19 6.58172 19 11Z" 
            stroke-width="2" stroke-linecap="round" stroke-linejoin="round"/> </g>
        </g>
    </symbol>

    <symbol id="arrow-left" viewBox="0 0 24 24" fill="none">
        <g>
            <path d="M13.5 8.25L9.75 12L13.5 15.75" stroke-width="1.5" stroke-linecap="round" stroke-linejoin="round"/>
        </g>
    </symbol>

    <symbol id="arrow-right" viewBox="0 0 24 24" fill="none">
        <g>
            <g id="SVGRepo_bgCarrier" stroke-width="0"/>

            <g id="SVGRepo_tracerCarrier" stroke-linecap="round" stroke-linejoin="round"/>

            <g id="SVGRepo_iconCarrier"> <path d="M10.5 15.75L14.25 12L10.5 8.25" stroke-width="1.5" stroke-linecap="round" stroke-linejoin="round"/> </g>
        </g>
    </symbol>



</svg>