<svg width="173" height="28" viewBox="0 0 173 28" fill="none" xmlns="http://www.w3.org/2000/svg">
<path d="M25.056 21.048H16.56V19.704L18.816 17.928V6.408L12.864 21.024H10.776L4.728 6.288V18.384L7.392 19.44L6.624 21H0.408001V19.656L2.664 17.88V4.8L5.51343e-07 3.672L0.792001 2.112H7.536L13.008 15.456L18.432 2.112H25.44V3.456L23.16 5.232V18.696L25.824 19.488L25.056 21.048ZM41.4641 20.952H35.9921V18.864L33.2801 21C32.9601 21.128 32.5601 21.192 32.0801 21.192C30.5441 21.192 29.4321 20.816 28.7441 20.064C28.0721 19.312 27.7361 18.408 27.7361 17.352C27.7361 16.728 27.9281 16.12 28.3121 15.528C28.6961 14.92 29.2481 14.36 29.9681 13.848H35.9921V13.44C35.9921 12.56 35.7521 11.912 35.2721 11.496C34.7921 11.08 34.1521 10.872 33.3521 10.872C32.2321 10.872 30.7681 11.312 28.9601 12.192L28.2401 10.824L31.5761 8.136C32.3921 7.896 33.3441 7.776 34.4321 7.776C36.2241 7.776 37.6081 8.184 38.5841 9C39.5761 9.816 40.0721 11 40.0721 12.552V18.552L42.2321 19.392L41.4641 20.952ZM33.3041 17.976C34.1201 17.976 35.0161 17.64 35.9921 16.968V15.432H32.1281C32.0001 15.624 31.9041 15.808 31.8401 15.984C31.7921 16.144 31.7681 16.328 31.7681 16.536C31.7681 16.936 31.9041 17.272 32.1761 17.544C32.4641 17.816 32.8401 17.952 33.3041 17.952V17.976ZM55.3371 10.344C55.6091 10.856 55.7451 11.4 55.7451 11.976C55.7451 12.952 55.3291 13.896 54.4971 14.808C53.6811 15.704 52.6651 16.384 51.4491 16.848C51.0331 17.328 50.8251 17.808 50.8251 18.288C50.8251 18.512 51.0011 18.736 51.3531 18.96C51.7051 19.168 52.2571 19.44 53.0091 19.776C54.1131 20.256 54.9611 20.696 55.5531 21.096C56.1451 21.512 56.4411 21.992 56.4411 22.536C56.4411 23.048 56.1211 23.68 55.4811 24.432C54.8411 25.2 54.0411 25.864 53.0811 26.424C52.1371 27 51.2171 27.288 50.3211 27.288C49.3451 27.288 48.1851 27.136 46.8411 26.832C45.4971 26.528 44.3771 26.224 43.4811 25.92V21.624H44.9931C45.7771 22.68 46.5691 23.48 47.3691 24.024C48.1851 24.584 49.1051 24.864 50.1291 24.864C50.6571 24.864 51.0971 24.744 51.4491 24.504C51.8171 24.28 52.0011 24.04 52.0011 23.784C52.0011 23.416 51.7851 23.088 51.3531 22.8C50.9371 22.528 50.2891 22.192 49.4091 21.792C48.4651 21.376 47.7531 21.008 47.2731 20.688C46.7931 20.352 46.5531 19.968 46.5531 19.536C46.5531 19.152 46.8411 18.76 47.4171 18.36C48.0091 17.96 48.7131 17.608 49.5291 17.304C49.2091 17.336 48.9691 17.352 48.8091 17.352C47.8331 17.352 46.9371 17.16 46.1211 16.776C45.3211 16.392 44.6891 15.88 44.2251 15.24C43.7611 14.584 43.5291 13.888 43.5291 13.152C43.5291 12.24 43.8651 11.368 44.5371 10.536C45.2091 9.704 46.0811 9.04 47.1531 8.544C48.2251 8.032 49.3211 7.776 50.4411 7.776C51.7211 7.776 52.8491 8.096 53.8251 8.736H57.7851L57.8091 10.344H55.3371ZM50.2251 14.616C50.7371 14.616 51.1291 14.496 51.4011 14.256C51.6891 14 51.8331 13.624 51.8331 13.128C51.8331 12.344 51.5771 11.728 51.0651 11.28C50.5691 10.816 49.9051 10.584 49.0731 10.584C48.0171 10.584 47.4891 11.056 47.4891 12C47.4891 12.768 47.7371 13.4 48.2331 13.896C48.7451 14.376 49.4091 14.616 50.2251 14.616ZM66.5126 20.952H58.9286V19.608L61.0646 17.808V12.24L58.9286 10.824V9.48L63.6326 7.56H65.1446V18.672L67.3046 19.392L66.5126 20.952ZM63.0806 0.335999C63.7686 0.335999 64.3286 0.559999 64.7606 1.008C65.2086 1.44 65.4326 1.984 65.4326 2.64C65.4326 3.104 65.2726 3.536 64.9526 3.936C64.6326 4.336 64.2326 4.656 63.7526 4.896C63.2726 5.136 62.8086 5.256 62.3606 5.256C61.6886 5.256 61.1286 5.04 60.6806 4.608C60.2486 4.16 60.0326 3.608 60.0326 2.952C60.0326 2.488 60.1926 2.056 60.5126 1.656C60.8326 1.256 61.2246 0.935998 61.6886 0.695999C62.1686 0.455999 62.6326 0.335999 63.0806 0.335999ZM76.4295 7.776C77.1815 7.776 78.0535 7.872 79.0455 8.064C80.0375 8.24 80.7575 8.44 81.2055 8.664V13.128H79.6935C79.0855 12.312 78.3975 11.68 77.6295 11.232C76.8615 10.784 76.0615 10.56 75.2295 10.56C74.6375 10.56 74.1815 10.84 73.8615 11.4C73.5575 11.944 73.4055 12.728 73.4055 13.752C73.4055 15.048 73.6775 16.12 74.2215 16.968C74.7815 17.816 75.5735 18.24 76.5975 18.24C77.6375 18.24 79.1335 17.736 81.0855 16.728L81.8055 18.096L78.3495 20.832C77.4375 21.072 76.3895 21.192 75.2055 21.192C74.0375 21.192 72.9815 20.92 72.0375 20.376C71.1095 19.816 70.3815 19.056 69.8535 18.096C69.3415 17.136 69.0855 16.072 69.0855 14.904C69.0855 13.64 69.4615 12.464 70.2135 11.376C70.9815 10.272 71.9415 9.4 73.0935 8.76C74.2455 8.104 75.3575 7.776 76.4295 7.776ZM104.389 10.68C105.541 11.112 106.445 11.752 107.101 12.6C107.773 13.432 108.109 14.368 108.109 15.408C108.109 16.416 107.669 17.368 106.789 18.264C105.925 19.144 104.845 19.848 103.549 20.376C102.253 20.904 101.013 21.168 99.8293 21.168C99.0293 21.168 98.2453 21.128 97.4773 21.048C96.1973 20.968 95.2053 20.928 94.5013 20.928H90.8533V19.584L93.1093 17.808V4.32L90.4453 3.624L91.2373 2.064H94.4773C95.9333 2.064 97.3653 2.016 98.7733 1.92C99.8613 1.856 100.661 1.824 101.173 1.824C102.357 1.824 103.397 2.032 104.293 2.448C105.205 2.864 105.909 3.432 106.405 4.152C106.901 4.856 107.149 5.648 107.149 6.528C107.149 7.312 106.893 8.064 106.381 8.784C105.885 9.504 105.221 10.144 104.389 10.704V10.68ZM102.541 7.8C102.541 6.648 102.269 5.72 101.725 5.016C101.181 4.312 100.373 3.96 99.3013 3.96C98.6453 3.96 98.0293 4.096 97.4533 4.368V10.536H100.141C100.925 10.536 101.517 10.304 101.917 9.84C102.333 9.376 102.541 8.696 102.541 7.8ZM100.525 18.792C101.453 18.792 102.181 18.552 102.709 18.072C103.253 17.592 103.525 16.936 103.525 16.104C103.525 15.016 103.221 14.128 102.613 13.44C102.021 12.736 101.133 12.352 99.9493 12.288H99.4693H97.4533V18.264C98.3653 18.616 99.3813 18.792 100.501 18.792H100.525ZM117.995 7.776C119.179 7.776 120.235 8.056 121.163 8.616C122.091 9.16 122.811 9.912 123.323 10.872C123.851 11.832 124.115 12.896 124.115 14.064C124.115 15.328 123.707 16.512 122.891 17.616C122.075 18.704 121.051 19.576 119.819 20.232C118.603 20.872 117.427 21.192 116.291 21.192C115.123 21.192 114.067 20.92 113.123 20.376C112.195 19.816 111.467 19.056 110.939 18.096C110.427 17.136 110.171 16.072 110.171 14.904C110.171 13.64 110.579 12.464 111.395 11.376C112.211 10.272 113.227 9.4 114.443 8.76C115.675 8.104 116.859 7.776 117.995 7.776ZM116.603 10.56C115.931 10.56 115.419 10.832 115.067 11.376C114.731 11.904 114.563 12.696 114.563 13.752C114.563 15.096 114.835 16.216 115.379 17.112C115.923 17.992 116.691 18.432 117.683 18.432C118.339 18.432 118.835 18.16 119.171 17.616C119.523 17.056 119.699 16.248 119.699 15.192C119.699 13.848 119.427 12.744 118.883 11.88C118.339 11 117.579 10.56 116.603 10.56ZM134.706 7.776C135.89 7.776 136.946 8.056 137.874 8.616C138.802 9.16 139.522 9.912 140.034 10.872C140.562 11.832 140.826 12.896 140.826 14.064C140.826 15.328 140.418 16.512 139.602 17.616C138.786 18.704 137.762 19.576 136.53 20.232C135.314 20.872 134.138 21.192 133.002 21.192C131.834 21.192 130.778 20.92 129.834 20.376C128.906 19.816 128.178 19.056 127.65 18.096C127.138 17.136 126.882 16.072 126.882 14.904C126.882 13.64 127.29 12.464 128.106 11.376C128.922 10.272 129.938 9.4 131.154 8.76C132.386 8.104 133.57 7.776 134.706 7.776ZM133.314 10.56C132.642 10.56 132.13 10.832 131.778 11.376C131.442 11.904 131.274 12.696 131.274 13.752C131.274 15.096 131.546 16.216 132.09 17.112C132.634 17.992 133.402 18.432 134.394 18.432C135.05 18.432 135.546 18.16 135.882 17.616C136.234 17.056 136.41 16.248 136.41 15.192C136.41 13.848 136.138 12.744 135.594 11.88C135.05 11 134.29 10.56 133.314 10.56ZM150.989 19.392L150.197 20.952H142.613V19.608L144.749 17.808V4.68L142.613 3.264V1.92L147.317 -9.53674e-07H148.829V18.672L150.989 19.392ZM158.645 20.928H153.677L149.765 14.496L153.989 11.136L151.061 9.552L151.829 7.992H158.765V9.336L153.797 13.416L157.037 18.456L159.413 19.368L158.645 20.928ZM167.654 17.904C167.654 17.6 167.446 17.296 167.03 16.992C166.614 16.672 165.974 16.272 165.11 15.792C164.262 15.312 163.582 14.904 163.07 14.568C162.558 14.216 162.11 13.824 161.726 13.392C161.358 12.944 161.174 12.464 161.174 11.952C161.174 11.376 161.446 10.76 161.99 10.104C162.55 9.448 163.23 8.896 164.03 8.448C164.83 8 165.566 7.776 166.238 7.776C167.054 7.776 168.006 7.872 169.094 8.064C170.198 8.24 170.998 8.44 171.494 8.664V12.672H169.982C169.55 11.872 169.03 11.248 168.422 10.8C167.83 10.352 167.214 10.128 166.574 10.128C166.254 10.128 165.998 10.224 165.806 10.416C165.614 10.592 165.518 10.808 165.518 11.064C165.518 11.4 165.726 11.728 166.142 12.048C166.574 12.368 167.254 12.792 168.182 13.32C169.414 13.992 170.358 14.6 171.014 15.144C171.686 15.688 172.022 16.312 172.022 17.016C172.022 17.608 171.734 18.232 171.158 18.888C170.598 19.528 169.902 20.072 169.07 20.52C168.254 20.968 167.502 21.192 166.814 21.192C165.934 21.192 164.886 21.104 163.67 20.928C162.47 20.736 161.614 20.528 161.102 20.304V16.152H162.614C163.094 17 163.686 17.664 164.39 18.144C165.094 18.608 165.79 18.84 166.478 18.84C166.83 18.84 167.11 18.752 167.318 18.576C167.542 18.384 167.654 18.16 167.654 17.904Z" fill="#F59106"/>
</svg>
